<?xml version="1.0" encoding="UTF-8" standalone="no"?>
<!DOCTYPE svg PUBLIC "-//W3C//DTD SVG 1.1//EN" "http://www.w3.org/Graphics/SVG/1.1/DTD/svg11.dtd">
<!-- Generated by Microsoft Visio, SVG Export mmus_address_spaces.svg MMUs -->
<svg xmlns="http://www.w3.org/2000/svg" xmlns:xlink="http://www.w3.org/1999/xlink" xmlns:ev="http://www.w3.org/2001/xml-events"
		xmlns:v="http://schemas.microsoft.com/visio/2003/SVGExtensions/" width="6.39847in" height="2.77347in"
		viewBox="0 0 460.69 199.69" xml:space="preserve" color-interpolation-filters="sRGB" class="st12">
	<v:documentProperties v:langID="1033" v:viewMarkup="false">
		<v:userDefs>
			<v:ud v:nameU="msvSubprocessMaster" v:prompt="" v:val="VT4(Rectangle)"/>
			<v:ud v:nameU="msvNoAutoConnect" v:val="VT0(1):26"/>
			<v:ud v:nameU="msvConvertTheme"/>
		</v:userDefs>
	</v:documentProperties>

	<style type="text/css">
	<![CDATA[
		.st1 {visibility:visible}
		.st2 {fill:#cdcdcd;fill-opacity:0.5;stroke:#cdcdcd;stroke-linecap:round;stroke-linejoin:round;stroke-opacity:0.5}
		.st3 {fill:url(#grad0-6);stroke:#404040;stroke-linecap:round;stroke-linejoin:round;stroke-width:0.25}
		.st4 {fill:#000000;font-family:Calibri;font-size:0.75em}
		.st5 {fill:url(#grad0-13);stroke:#404040;stroke-linecap:round;stroke-linejoin:round;stroke-width:0.25}
		.st6 {fill:#000000;font-family:Calibri;font-size:1.00001em}
		.st7 {font-size:1em}
		.st8 {fill:none;stroke:none;stroke-linecap:round;stroke-linejoin:round;stroke-width:0.25}
		.st9 {fill:url(#grad0-37);stroke:#404040;stroke-linecap:round;stroke-linejoin:round;stroke-width:0.25}
		.st10 {fill:url(#grad0-44);stroke:#404040;stroke-linecap:round;stroke-linejoin:round;stroke-width:0.25}
		.st11 {fill:url(#grad0-57);stroke:#404040;stroke-linecap:round;stroke-linejoin:round;stroke-width:0.25}
		.st12 {fill:none;fill-rule:evenodd;font-size:12px;overflow:visible;stroke-linecap:square;stroke-miterlimit:3}
	]]>
	</style>

	<defs id="Patterns_And_Gradients">
		<linearGradient id="grad0-6" x1="0" y1="0" x2="1" y2="0" gradientTransform="rotate(270 0.5 0.5)">
			<stop offset="0" stop-color="#d3dcba" stop-opacity="1"/>
			<stop offset="1" stop-color="#e0e6cd" stop-opacity="1"/>
		</linearGradient>
		<linearGradient id="grad0-13" x1="0" y1="0" x2="1" y2="0" gradientTransform="rotate(270 0.5 0.5)">
			<stop offset="0" stop-color="#f0f0f0" stop-opacity="1"/>
			<stop offset="1" stop-color="#ffffff" stop-opacity="1"/>
		</linearGradient>
		<linearGradient id="grad0-37" x1="0" y1="0" x2="1" y2="0" gradientTransform="rotate(270 0.5 0.5)">
			<stop offset="0" stop-color="#e2e8d2" stop-opacity="1"/>
			<stop offset="1" stop-color="#eff2e6" stop-opacity="1"/>
		</linearGradient>
		<linearGradient id="grad0-44" x1="0" y1="0" x2="1" y2="0" gradientTransform="rotate(270 0.5 0.5)">
			<stop offset="0" stop-color="#cbddeb" stop-opacity="1"/>
			<stop offset="1" stop-color="#e1ebf3" stop-opacity="1"/>
		</linearGradient>
		<linearGradient id="grad0-57" x1="0" y1="0" x2="1" y2="0" gradientTransform="rotate(270 0.5 0.5)">
			<stop offset="0" stop-color="#f7dbc1" stop-opacity="1"/>
			<stop offset="1" stop-color="#faeadc" stop-opacity="1"/>
		</linearGradient>
	</defs>
	<g v:mID="5" v:index="1" v:groupContext="foregroundPage">
		<v:userDefs>
			<v:ud v:nameU="msvThemeColors" v:val="VT0(36):26"/>
			<v:ud v:nameU="msvThemeEffects" v:val="VT0(16):26"/>
			<v:ud v:nameU="msvThemeOrder" v:val="VT0(0):26"/>
		</v:userDefs>
		<title>MMUs</title>
		<v:pageProperties v:drawingScale="1" v:pageScale="1" v:drawingUnits="0" v:shadowOffsetX="9" v:shadowOffsetY="-9"/>
		<v:layer v:name="Connector" v:index="0"/>
		<g id="shape4-1" v:mID="4" v:groupContext="shape" transform="translate(135.125,-64.565) scale(-1,1)">
			<title>45 degree single</title>
			<desc>DSP VA</desc>
			<v:userDefs>
				<v:ud v:nameU="visVersion" v:val="VT0(14):26"/>
				<v:ud v:nameU="msvThemeColors" v:val="VT0(36):26"/>
				<v:ud v:nameU="msvThemeEffects" v:val="VT0(16):26"/>
			</v:userDefs>
			<v:textBlock v:margins="rect(4,4,4,4)"/>
			<v:textRect cx="22.5" cy="163.69" width="45.01" height="72"/>
			<g id="shadow4-2" v:groupContext="shadow" v:shadowOffsetX="1.44" v:shadowOffsetY="-1.44" v:shadowType="1"
					transform="matrix(1,0,0,1,-1.44,1.44)" class="st1">
				<path d="M0 163.69 L20.25 127.69 L20.25 151.45 L45 151.45 L45 175.93 L20.25 175.93 L20.25 199.69 L0 163.69 Z"
						class="st2"/>
			</g>
			<path d="M0 163.69 L20.25 127.69 L20.25 151.45 L45 151.45 L45 175.93 L20.25 175.93 L20.25 199.69 L0 163.69 Z"
					class="st3"/>
			<text x="-35.84" y="166.39" transform="scale(-1,1)" class="st4" v:langID="1033"><v:paragraph v:horizAlign="1"/><v:tabList/>DSP VA</text>		</g>
		<g id="shape11-8" v:mID="11" v:groupContext="shape" transform="translate(18.125,-100.565)">
			<title>Rectangle.8</title>
			<desc>DSP Process 1</desc>
			<v:userDefs>
				<v:ud v:nameU="visVersion" v:val="VT0(15):26"/>
				<v:ud v:nameU="msvThemeColors" v:val="VT0(36):26"/>
				<v:ud v:nameU="msvThemeEffects" v:val="VT0(16):26"/>
			</v:userDefs>
			<v:textBlock v:margins="rect(4,4,4,4)"/>
			<v:textRect cx="36" cy="181.69" width="72.01" height="36"/>
			<g id="shadow11-9" v:groupContext="shadow" v:shadowOffsetX="1.44" v:shadowOffsetY="-1.44" v:shadowType="1"
					transform="matrix(1,0,0,1,1.44,1.44)" class="st1">
				<rect x="0" y="163.69" width="72" height="36" class="st2"/>
			</g>
			<rect x="0" y="163.69" width="72" height="36" class="st5"/>
			<text x="6.52" y="178.09" class="st6" v:langID="1033"><v:paragraph v:horizAlign="1"/><v:tabList/>DSP Process <tspan
						x="32.96" dy="1.2em" class="st7">1</tspan></text>		</g>
		<g id="shape12-16" v:mID="12" v:groupContext="shape" transform="translate(18.125,-55.565)">
			<title>Rectangle.12</title>
			<desc>DSP Process 2</desc>
			<v:userDefs>
				<v:ud v:nameU="visVersion" v:val="VT0(15):26"/>
				<v:ud v:nameU="msvThemeColors" v:val="VT0(36):26"/>
				<v:ud v:nameU="msvThemeEffects" v:val="VT0(16):26"/>
			</v:userDefs>
			<v:textBlock v:margins="rect(4,4,4,4)"/>
			<v:textRect cx="36" cy="181.69" width="72.01" height="36"/>
			<g id="shadow12-17" v:groupContext="shadow" v:shadowOffsetX="1.44" v:shadowOffsetY="-1.44" v:shadowType="1"
					transform="matrix(1,0,0,1,1.44,1.44)" class="st1">
				<rect x="0" y="163.69" width="72" height="36" class="st2"/>
			</g>
			<rect x="0" y="163.69" width="72" height="36" class="st5"/>
			<text x="6.52" y="178.09" class="st6" v:langID="1033"><v:paragraph v:horizAlign="1"/><v:tabList/>DSP Process <tspan
						x="32.96" dy="1.2em" class="st7">2</tspan></text>		</g>
		<g id="shape13-23" v:mID="13" v:groupContext="shape" transform="translate(18.125,-32.8507)">
			<title>Sheet.13</title>
			<desc>...</desc>
			<v:userDefs>
				<v:ud v:nameU="msvThemeColors" v:val="VT0(36):26"/>
				<v:ud v:nameU="msvThemeEffects" v:val="VT0(16):26"/>
			</v:userDefs>
			<v:textBlock v:margins="rect(4,4,4,4)"/>
			<v:textRect cx="36" cy="191.69" width="72.01" height="16"/>
			<rect x="0" y="183.69" width="72" height="16" class="st8"/>
			<text x="31.46" y="195.29" class="st6" v:langID="1033"><v:paragraph v:horizAlign="1"/><v:tabList/>...</text>		</g>
		<g id="shape15-26" v:mID="15" v:groupContext="shape" transform="translate(18.125,-145.565)">
			<title>Rectangle.15</title>
			<desc>DSP OS</desc>
			<v:userDefs>
				<v:ud v:nameU="visVersion" v:val="VT0(15):26"/>
				<v:ud v:nameU="msvThemeColors" v:val="VT0(36):26"/>
				<v:ud v:nameU="msvThemeEffects" v:val="VT0(16):26"/>
			</v:userDefs>
			<v:textBlock v:margins="rect(4,4,4,4)"/>
			<v:textRect cx="36" cy="181.69" width="72.01" height="36"/>
			<g id="shadow15-27" v:groupContext="shadow" v:shadowOffsetX="1.44" v:shadowOffsetY="-1.44" v:shadowType="1"
					transform="matrix(1,0,0,1,1.44,1.44)" class="st1">
				<rect x="0" y="163.69" width="72" height="36" class="st2"/>
			</g>
			<rect x="0" y="163.69" width="72" height="36" class="st5"/>
			<text x="18.37" y="185.29" class="st6" v:langID="1033"><v:paragraph v:horizAlign="1"/><v:tabList/>DSP OS</text>		</g>
		<g id="shape16-32" v:mID="16" v:groupContext="shape" transform="translate(135.125,-19.565)">
			<title>Rounded Rectangle.9.16</title>
			<desc>DSP MMU</desc>
			<v:userDefs>
				<v:ud v:nameU="CTypeTopLeftSnip" v:prompt="" v:val="VT0(0):5"/>
				<v:ud v:nameU="CTypeTopRightSnip" v:prompt="" v:val="VT0(0):5"/>
				<v:ud v:nameU="CTypeBotLeftSnip" v:prompt="" v:val="VT0(0):5"/>
				<v:ud v:nameU="CTypeBotRightSnip" v:prompt="" v:val="VT0(0):5"/>
				<v:ud v:nameU="CornerLockHoriz" v:prompt="" v:val="VT0(1):5"/>
				<v:ud v:nameU="CornerLockVert" v:prompt="" v:val="VT0(1):5"/>
				<v:ud v:nameU="CornerLockDiag" v:prompt="" v:val="VT0(0):5"/>
				<v:ud v:nameU="TopLeftOffset" v:prompt="" v:val="VT0(0.15):1"/>
				<v:ud v:nameU="TopRightOffset" v:prompt="" v:val="VT0(0.15):1"/>
				<v:ud v:nameU="BotLeftOffset" v:prompt="" v:val="VT0(0.15):1"/>
				<v:ud v:nameU="BotRightOffset" v:prompt="" v:val="VT0(0.15):1"/>
				<v:ud v:nameU="visVersion" v:prompt="" v:val="VT0(15):26"/>
				<v:ud v:nameU="TopLeftOffset" v:prompt="" v:val="VT0(0.10000000340598):1"/>
				<v:ud v:nameU="TopRightOffset" v:prompt="" v:val="VT0(0.10000000340598):1"/>
				<v:ud v:nameU="BotLeftOffset" v:prompt="" v:val="VT0(0.10000000340598):1"/>
				<v:ud v:nameU="BotRightOffset" v:prompt="" v:val="VT0(0.10000000340598):1"/>
				<v:ud v:nameU="msvThemeColors" v:val="VT0(36):26"/>
				<v:ud v:nameU="msvThemeEffects" v:val="VT0(16):26"/>
			</v:userDefs>
			<v:textBlock v:margins="rect(4,4,4,4)"/>
			<v:textRect cx="36" cy="118.69" width="72.01" height="162"/>
			<g id="shadow16-33" v:groupContext="shadow" v:shadowOffsetX="1.44" v:shadowOffsetY="-1.44" v:shadowType="1"
					transform="matrix(1,0,0,1,1.44,1.44)" class="st1">
				<path d="M7.2 199.69 L64.8 199.69 A7.19988 7.19988 -180 0 0 72 192.49 L72 44.89 A7.19988 7.19988 -180 0 0 64.8 37.69
							 L7.2 37.69 A7.19988 7.19988 -180 0 0 -0 44.89 L0 192.49 A7.19988 7.19988 -180 0 0 7.2 199.69 Z"
						class="st2"/>
			</g>
			<path d="M7.2 199.69 L64.8 199.69 A7.19988 7.19988 -180 0 0 72 192.49 L72 44.89 A7.19988 7.19988 -180 0 0 64.8 37.69
						 L7.2 37.69 A7.19988 7.19988 -180 0 0 -0 44.89 L0 192.49 A7.19988 7.19988 -180 0 0 7.2 199.69 Z"
					class="st9"/>
			<text x="10.99" y="122.29" class="st6" v:langID="1033"><v:paragraph v:horizAlign="1"/><v:tabList/>DSP MMU</text>		</g>
		<g id="shape17-39" v:mID="17" v:groupContext="shape" transform="translate(252.125,-64.565) scale(-1,1)">
			<title>45 degree single.17</title>
			<desc>DSP PA</desc>
			<v:userDefs>
				<v:ud v:nameU="visVersion" v:val="VT0(14):26"/>
				<v:ud v:nameU="msvThemeColors" v:val="VT0(36):26"/>
				<v:ud v:nameU="msvThemeEffects" v:val="VT0(16):26"/>
			</v:userDefs>
			<v:textBlock v:margins="rect(4,4,4,4)"/>
			<v:textRect cx="22.5" cy="163.69" width="45.01" height="72"/>
			<g id="shadow17-40" v:groupContext="shadow" v:shadowOffsetX="1.44" v:shadowOffsetY="-1.44" v:shadowType="1"
					transform="matrix(1,0,0,1,-1.44,1.44)" class="st1">
				<path d="M0 163.69 L20.25 127.69 L20.25 151.45 L45 151.45 L45 175.93 L20.25 175.93 L20.25 199.69 L0 163.69 Z"
						class="st2"/>
			</g>
			<path d="M0 163.69 L20.25 127.69 L20.25 151.45 L45 151.45 L45 175.93 L20.25 175.93 L20.25 199.69 L0 163.69 Z"
					class="st10"/>
			<text x="-35.61" y="166.39" transform="scale(-1,1)" class="st4" v:langID="1033"><v:paragraph v:horizAlign="1"/><v:tabList/>DSP PA</text>		</g>
		<g id="shape18-46" v:mID="18" v:groupContext="shape" transform="translate(252.125,-19.565)">
			<title>Rounded Rectangle.18</title>
			<desc>SMMU</desc>
			<v:userDefs>
				<v:ud v:nameU="CTypeTopLeftSnip" v:prompt="" v:val="VT0(0):5"/>
				<v:ud v:nameU="CTypeTopRightSnip" v:prompt="" v:val="VT0(0):5"/>
				<v:ud v:nameU="CTypeBotLeftSnip" v:prompt="" v:val="VT0(0):5"/>
				<v:ud v:nameU="CTypeBotRightSnip" v:prompt="" v:val="VT0(0):5"/>
				<v:ud v:nameU="CornerLockHoriz" v:prompt="" v:val="VT0(1):5"/>
				<v:ud v:nameU="CornerLockVert" v:prompt="" v:val="VT0(1):5"/>
				<v:ud v:nameU="CornerLockDiag" v:prompt="" v:val="VT0(0):5"/>
				<v:ud v:nameU="TopLeftOffset" v:prompt="" v:val="VT0(0.15):1"/>
				<v:ud v:nameU="TopRightOffset" v:prompt="" v:val="VT0(0.15):1"/>
				<v:ud v:nameU="BotLeftOffset" v:prompt="" v:val="VT0(0.15):1"/>
				<v:ud v:nameU="BotRightOffset" v:prompt="" v:val="VT0(0.15):1"/>
				<v:ud v:nameU="visVersion" v:prompt="" v:val="VT0(15):26"/>
				<v:ud v:nameU="TopLeftOffset" v:prompt="" v:val="VT0(0.10000000340598):1"/>
				<v:ud v:nameU="TopRightOffset" v:prompt="" v:val="VT0(0.10000000340598):1"/>
				<v:ud v:nameU="BotLeftOffset" v:prompt="" v:val="VT0(0.10000000340598):1"/>
				<v:ud v:nameU="BotRightOffset" v:prompt="" v:val="VT0(0.10000000340598):1"/>
				<v:ud v:nameU="msvThemeColors" v:val="VT0(36):26"/>
				<v:ud v:nameU="msvThemeEffects" v:val="VT0(16):26"/>
			</v:userDefs>
			<v:textBlock v:margins="rect(4,4,4,4)"/>
			<v:textRect cx="36" cy="118.69" width="72.01" height="162"/>
			<g id="shadow18-47" v:groupContext="shadow" v:shadowOffsetX="1.44" v:shadowOffsetY="-1.44" v:shadowType="1"
					transform="matrix(1,0,0,1,1.44,1.44)" class="st1">
				<path d="M7.2 199.69 L64.8 199.69 A7.19988 7.19988 -180 0 0 72 192.49 L72 44.89 A7.19988 7.19988 -180 0 0 64.8 37.69
							 L7.2 37.69 A7.19988 7.19988 -180 0 0 -0 44.89 L0 192.49 A7.19988 7.19988 -180 0 0 7.2 199.69 Z"
						class="st2"/>
			</g>
			<path d="M7.2 199.69 L64.8 199.69 A7.19988 7.19988 -180 0 0 72 192.49 L72 44.89 A7.19988 7.19988 -180 0 0 64.8 37.69
						 L7.2 37.69 A7.19988 7.19988 -180 0 0 -0 44.89 L0 192.49 A7.19988 7.19988 -180 0 0 7.2 199.69 Z"
					class="st10"/>
			<text x="19.13" y="122.29" class="st6" v:langID="1033"><v:paragraph v:horizAlign="1"/><v:tabList/>SMMU</text>		</g>
		<g id="shape19-52" v:mID="19" v:groupContext="shape" transform="translate(369.125,-64.565) scale(-1,1)">
			<title>45 degree single.19</title>
			<desc>System PA</desc>
			<v:userDefs>
				<v:ud v:nameU="visVersion" v:val="VT0(14):26"/>
				<v:ud v:nameU="msvThemeColors" v:val="VT0(36):26"/>
				<v:ud v:nameU="msvThemeEffects" v:val="VT0(16):26"/>
			</v:userDefs>
			<v:textBlock v:margins="rect(4,4,4,4)"/>
			<v:textRect cx="22.5" cy="163.69" width="45.01" height="72"/>
			<g id="shadow19-53" v:groupContext="shadow" v:shadowOffsetX="1.44" v:shadowOffsetY="-1.44" v:shadowType="1"
					transform="matrix(1,0,0,1,-1.44,1.44)" class="st1">
				<path d="M0 163.69 L20.25 127.69 L20.25 151.45 L45 151.45 L45 175.93 L20.25 175.93 L20.25 199.69 L0 163.69 Z"
						class="st2"/>
			</g>
			<path d="M0 163.69 L20.25 127.69 L20.25 151.45 L45 151.45 L45 175.93 L20.25 175.93 L20.25 199.69 L0 163.69 Z"
					class="st11"/>
			<text x="-35.71" y="160.99" transform="scale(-1,1)" class="st4" v:langID="1033"><v:paragraph v:horizAlign="1"/><v:tabList/>System <tspan
						x="-27.43" dy="1.2em" class="st7">PA</tspan></text>		</g>
		<g id="shape20-60" v:mID="20" v:groupContext="shape" transform="translate(369.125,-19.565)">
			<title>Rounded Rectangle.20</title>
			<desc>External Memory</desc>
			<v:userDefs>
				<v:ud v:nameU="CTypeTopLeftSnip" v:prompt="" v:val="VT0(0):5"/>
				<v:ud v:nameU="CTypeTopRightSnip" v:prompt="" v:val="VT0(0):5"/>
				<v:ud v:nameU="CTypeBotLeftSnip" v:prompt="" v:val="VT0(0):5"/>
				<v:ud v:nameU="CTypeBotRightSnip" v:prompt="" v:val="VT0(0):5"/>
				<v:ud v:nameU="CornerLockHoriz" v:prompt="" v:val="VT0(1):5"/>
				<v:ud v:nameU="CornerLockVert" v:prompt="" v:val="VT0(1):5"/>
				<v:ud v:nameU="CornerLockDiag" v:prompt="" v:val="VT0(0):5"/>
				<v:ud v:nameU="TopLeftOffset" v:prompt="" v:val="VT0(0.15):1"/>
				<v:ud v:nameU="TopRightOffset" v:prompt="" v:val="VT0(0.15):1"/>
				<v:ud v:nameU="BotLeftOffset" v:prompt="" v:val="VT0(0.15):1"/>
				<v:ud v:nameU="BotRightOffset" v:prompt="" v:val="VT0(0.15):1"/>
				<v:ud v:nameU="visVersion" v:prompt="" v:val="VT0(15):26"/>
				<v:ud v:nameU="TopLeftOffset" v:prompt="" v:val="VT0(0.10000000340598):1"/>
				<v:ud v:nameU="TopRightOffset" v:prompt="" v:val="VT0(0.10000000340598):1"/>
				<v:ud v:nameU="BotLeftOffset" v:prompt="" v:val="VT0(0.10000000340598):1"/>
				<v:ud v:nameU="BotRightOffset" v:prompt="" v:val="VT0(0.10000000340598):1"/>
				<v:ud v:nameU="msvThemeColors" v:val="VT0(36):26"/>
				<v:ud v:nameU="msvThemeEffects" v:val="VT0(16):26"/>
			</v:userDefs>
			<v:textBlock v:margins="rect(4,4,4,4)"/>
			<v:textRect cx="36" cy="118.69" width="72.01" height="162"/>
			<g id="shadow20-61" v:groupContext="shadow" v:shadowOffsetX="1.44" v:shadowOffsetY="-1.44" v:shadowType="1"
					transform="matrix(1,0,0,1,1.44,1.44)" class="st1">
				<path d="M7.2 199.69 L64.8 199.69 A7.19988 7.19988 -180 0 0 72 192.49 L72 44.89 A7.19988 7.19988 -180 0 0 64.8 37.69
							 L7.2 37.69 A7.19988 7.19988 -180 0 0 -0 44.89 L0 192.49 A7.19988 7.19988 -180 0 0 7.2 199.69 Z"
						class="st2"/>
			</g>
			<path d="M7.2 199.69 L64.8 199.69 A7.19988 7.19988 -180 0 0 72 192.49 L72 44.89 A7.19988 7.19988 -180 0 0 64.8 37.69
						 L7.2 37.69 A7.19988 7.19988 -180 0 0 -0 44.89 L0 192.49 A7.19988 7.19988 -180 0 0 7.2 199.69 Z"
					class="st11"/>
			<text x="15.98" y="115.09" class="st6" v:langID="1033"><v:paragraph v:horizAlign="1"/><v:tabList/>External <tspan
						x="15.12" dy="1.2em" class="st7">Memory</tspan></text>		</g>
	</g>
</svg>
