<svg version="1.1" xmlns="http://www.w3.org/2000/svg" xmlns:xlink="http://www.w3.org/1999/xlink" width="436" height="325"><style xmlns="http://www.w3.org/1999/xhtml"></style><defs/><g transform="translate(0,0)"><g><rect fill="#FFFFFF" stroke="none" x="0" y="0" width="436" height="325"/></g><g transform="translate(0,0) matrix(1,0,0,1,50,10)"><g><g transform="translate(0,0) scale(3.6,0.75)"><g><path fill="none" stroke="none" d="M 10 0 L 90 0 Q 100 0 100 10 L 100 90 Q 100 100 90 100 L 10 100 Q 0 100 0 90 L 0 10 Q 0 0 10 0 Z"/><g transform="scale(0.2777777777777778,1.3333333333333333)"><path fill="#FFFFFF" stroke="none" d="M 10 0 L 350 0 Q 360 0 360 10 L 360 65 Q 360 75 350 75 L 10 75 Q 0 75 0 65 L 0 10 Q 0 0 10 0 Z"/><path fill="none" stroke="#333333" d="M 10 0 M 10 0 L 350 0 Q 360 0 360 10 L 360 65 Q 360 75 350 75 L 10 75 Q 0 75 0 65 L 0 10 Q 0 0 10 0 Z" stroke-miterlimit="10" stroke-width="2"/></g></g></g></g></g><g transform="translate(0,0) matrix(1,0,0,1,50,10)"><g><g transform="translate(0,0) scale(1.2,0.75)"><g><path fill="none" stroke="none" d="M 10 0 L 90 0 Q 100 0 100 10 L 100 90 Q 100 100 90 100 L 10 100 Q 0 100 0 90 L 0 10 Q 0 0 10 0 Z"/><g transform="scale(0.8333333333333334,1.3333333333333333)"><path fill="#FFFFFF" stroke="none" d="M 10 0 L 110 0 Q 120 0 120 10 L 120 65 Q 120 75 110 75 L 10 75 Q 0 75 0 65 L 0 10 Q 0 0 10 0 Z"/><path fill="none" stroke="#000000" d="M 10 0 M 10 0 L 110 0 Q 120 0 120 10 L 120 65 Q 120 75 110 75 L 10 75 Q 0 75 0 65 L 0 10 Q 0 0 10 0 Z" stroke-miterlimit="10" stroke-width="2"/></g></g></g></g></g><g transform="matrix(1,0,0,1,60,41)"><g><g><rect fill="rgb(0,0,0)" stroke="none" x="0" y="0" width="101" height="14" fill-opacity="0"/></g></g><g><g><rect fill="rgb(0,0,0)" stroke="none" x="0" y="0" width="101" height="14" fill-opacity="0"/></g></g><g><g><rect fill="rgb(0,0,0)" stroke="none" x="9.15625" y="0" width="83" height="14" fill-opacity="0"/></g></g><g><g><rect fill="rgb(0,0,0)" stroke="none" x="9.15625" y="0" width="83" height="14" fill-opacity="0"/></g><text fill="rgb(0, 0, 0)" stroke="none" font-family="Arial" font-size="12px" font-style="normal" font-weight="700" text-decoration="" line-height="14px" x="9" y="12">HLOS</text><text fill="rgb(0, 0, 0)" stroke="none" font-family="Arial" font-size="12px" font-style="normal" font-weight="700" text-decoration="" line-height="14px" x="46" y="12">Memory</text></g></g><g transform="translate(0,0) matrix(1,0,0,1,170,10)"><g><g transform="translate(0,0) scale(1.2,0.75)"><g><path fill="none" stroke="none" d="M 10 0 L 90 0 Q 100 0 100 10 L 100 90 Q 100 100 90 100 L 10 100 Q 0 100 0 90 L 0 10 Q 0 0 10 0 Z"/><g transform="scale(0.8333333333333334,1.3333333333333333)"><path fill="#FFFFFF" stroke="none" d="M 10 0 L 110 0 Q 120 0 120 10 L 120 65 Q 120 75 110 75 L 10 75 Q 0 75 0 65 L 0 10 Q 0 0 10 0 Z"/><path fill="none" stroke="#000000" d="M 10 0 M 10 0 L 110 0 Q 120 0 120 10 L 120 65 Q 120 75 110 75 L 10 75 Q 0 75 0 65 L 0 10 Q 0 0 10 0 Z" stroke-miterlimit="10" stroke-width="2"/></g></g></g></g></g><g transform="matrix(1,0,0,1,180,41)"><g><g><rect fill="rgb(0,0,0)" stroke="none" x="0" y="0" width="101" height="14" fill-opacity="0"/></g></g><g><g><rect fill="rgb(0,0,0)" stroke="none" x="0" y="0" width="101" height="14" fill-opacity="0"/></g></g><g><g><rect fill="rgb(0,0,0)" stroke="none" x="5.484375" y="0" width="91" height="14" fill-opacity="0"/></g></g><g><g><rect fill="rgb(0,0,0)" stroke="none" x="5.484375" y="0" width="91" height="14" fill-opacity="0"/></g><text fill="rgb(0, 0, 0)" stroke="none" font-family="Arial" font-size="12px" font-style="normal" font-weight="700" text-decoration="" line-height="14px" x="5" y="12">Shared</text><text fill="rgb(0, 0, 0)" stroke="none" font-family="Arial" font-size="12px" font-style="normal" font-weight="700" text-decoration="" line-height="14px" x="50" y="12">Memory</text></g></g><g transform="translate(0,0) matrix(1,0,0,1,290,10)"><g><g transform="translate(0,0) scale(1.2,0.75)"><g><path fill="none" stroke="none" d="M 10 0 L 90 0 Q 100 0 100 10 L 100 90 Q 100 100 90 100 L 10 100 Q 0 100 0 90 L 0 10 Q 0 0 10 0 Z"/><g transform="scale(0.8333333333333334,1.3333333333333333)"><path fill="#FFFFFF" stroke="none" d="M 10 0 L 110 0 Q 120 0 120 10 L 120 65 Q 120 75 110 75 L 10 75 Q 0 75 0 65 L 0 10 Q 0 0 10 0 Z"/><path fill="none" stroke="#000000" d="M 10 0 M 10 0 L 110 0 Q 120 0 120 10 L 120 65 Q 120 75 110 75 L 10 75 Q 0 75 0 65 L 0 10 Q 0 0 10 0 Z" stroke-miterlimit="10" stroke-width="2"/></g></g></g></g></g><g transform="matrix(1,0,0,1,300,41)"><g><g><rect fill="rgb(0,0,0)" stroke="none" x="0" y="0" width="101" height="14" fill-opacity="0"/></g></g><g><g><rect fill="rgb(0,0,0)" stroke="none" x="0" y="0" width="101" height="14" fill-opacity="0"/></g></g><g><g><rect fill="rgb(0,0,0)" stroke="none" x="13.484375" y="0" width="75" height="14" fill-opacity="0"/></g></g><g><g><rect fill="rgb(0,0,0)" stroke="none" x="13.484375" y="0" width="75" height="14" fill-opacity="0"/></g><text fill="rgb(0, 0, 0)" stroke="none" font-family="Arial" font-size="12px" font-style="normal" font-weight="700" text-decoration="" line-height="14px" x="13" y="12">DSP</text><text fill="rgb(0, 0, 0)" stroke="none" font-family="Arial" font-size="12px" font-style="normal" font-weight="700" text-decoration="" line-height="14px" x="41" y="12">Memory</text></g></g><g transform="translate(0.5,0.5) matrix(1,0,0,1,90,150)"><g><g transform="translate(0,0) scale(2.8,0.3)"><g><path fill="#ffffff" stroke="none" d="M 0 0 L 100 0 Q 100 0 100 0 L 100 100 Q 100 100 100 100 L 0 100 Q 0 100 0 100 L 0 0 Q 0 0 0 0 Z"/><g transform="scale(0.35714285714285715,3.3333333333333335)"><path fill="none" stroke="none" d="M 0 0 L 280 0 Q 280 0 280 0 L 280 30 Q 280 30 280 30 L 0 30 Q 0 30 0 30 L 0 0 Q 0 0 0 0 Z"/><path fill="none" stroke="#000000" d="M 0 0 M 0 0 L 280 0 Q 280 0 280 0 L 280 30 Q 280 30 280 30 L 0 30 Q 0 30 0 30 L 0 0 Q 0 0 0 0 Z" stroke-miterlimit="10"/></g></g></g></g></g><g transform="matrix(1,0,0,1,100,158)"><g><g><rect fill="rgb(0,0,0)" stroke="none" x="0" y="0" width="261" height="14" fill-opacity="0"/></g></g><g><g><rect fill="rgb(0,0,0)" stroke="none" x="0" y="0" width="261" height="14" fill-opacity="0"/></g></g><g><g><rect fill="rgb(0,0,0)" stroke="none" x="64.8125" y="0" width="131" height="14" fill-opacity="0"/></g></g><g><g><rect fill="rgb(0,0,0)" stroke="none" x="64.8125" y="0" width="131" height="14" fill-opacity="0"/></g><text fill="rgb(0, 0, 0)" stroke="none" font-family="Arial" font-size="12px" font-style="normal" font-weight="normal" text-decoration="" line-height="14px" x="65" y="12">Memory</text><text fill="rgb(0, 0, 0)" stroke="none" font-family="Arial" font-size="12px" font-style="normal" font-weight="normal" text-decoration="" line-height="14px" x="111" y="12">Protection</text><text fill="rgb(0, 0, 0)" stroke="none" font-family="Arial" font-size="12px" font-style="normal" font-weight="normal" text-decoration="" line-height="14px" x="169" y="12">Units</text></g></g><g transform="matrix(1,0,0,1,106,81)"><g transform="translate(0,0)"><g transform="translate(130,-175) translate(-236,94) matrix(1,0,0,1,0,0)"><g><path fill="none" stroke="#000000" d="M 110 150.00769185258002 L 110 128.33846123505336 L 110 106.66923061752668 L 110 85" stroke-miterlimit="10"/></g></g></g></g><g transform="matrix(1,0,0,1,226,81)"><g transform="translate(0,0)"><g transform="translate(-176,-127) translate(-50,46) matrix(1,0,0,1,0,0)"><g><path fill="none" stroke="#000000" d="M 230 150 L 230 128.33333333333334 L 230 106.66666666666667 L 230 85" stroke-miterlimit="10"/></g></g></g></g><g transform="matrix(1,0,0,1,346,81)"><g transform="translate(0,0)"><g transform="translate(-315,-119) translate(-31,38) matrix(1,0,0,1,0,0)"><g><path fill="none" stroke="#000000" d="M 350 85 L 350 106.68973131332991 L 350 128.37946262665983 L 350 150.06919393998976" stroke-miterlimit="10"/></g></g></g></g><g transform="translate(0,0) matrix(1,0,0,1,60,230)"><g><g transform="translate(0,0) scale(1,0.75)"><g><path fill="none" stroke="none" d="M 10 0 L 90 0 Q 100 0 100 10 L 100 90 Q 100 100 90 100 L 10 100 Q 0 100 0 90 L 0 10 Q 0 0 10 0 Z"/><g transform="scale(1,1.3333333333333333)"><path fill="#FFFFFF" stroke="none" d="M 10 0 L 90 0 Q 100 0 100 10 L 100 65 Q 100 75 90 75 L 10 75 Q 0 75 0 65 L 0 10 Q 0 0 10 0 Z"/><path fill="none" stroke="#333333" d="M 10 0 M 10 0 L 90 0 Q 100 0 100 10 L 100 65 Q 100 75 90 75 L 10 75 Q 0 75 0 65 L 0 10 Q 0 0 10 0 Z" stroke-miterlimit="10" stroke-width="2"/></g></g></g></g></g><g transform="matrix(1,0,0,1,70,254)"><g><g><rect fill="rgb(0,0,0)" stroke="none" x="0" y="0" width="81" height="28" fill-opacity="0"/></g></g><g><g><rect fill="rgb(0,0,0)" stroke="none" x="0" y="0" width="81" height="28" fill-opacity="0"/></g></g><g><g><rect fill="rgb(0,0,0)" stroke="none" x="11.140625" y="0" width="59" height="28" fill-opacity="0"/></g></g><g><g><rect fill="rgb(0,0,0)" stroke="none" x="11.140625" y="0" width="59" height="28" fill-opacity="0"/></g><text fill="rgb(0, 0, 0)" stroke="none" font-family="Arial" font-size="12px" font-style="normal" font-weight="normal" text-decoration="" line-height="14px" x="11.140625" y="12">Application</text><text fill="rgb(0, 0, 0)" stroke="none" font-family="Arial" font-size="12px" font-style="normal" font-weight="normal" text-decoration="" line-height="14px" x="13.484375" y="26">Processor</text></g></g><g transform="translate(0,0) matrix(1,0,0,1,300,230)"><g><g transform="translate(0,0) scale(1,0.75)"><g><path fill="none" stroke="none" d="M 10 0 L 90 0 Q 100 0 100 10 L 100 90 Q 100 100 90 100 L 10 100 Q 0 100 0 90 L 0 10 Q 0 0 10 0 Z"/><g transform="scale(1,1.3333333333333333)"><path fill="#FFFFFF" stroke="none" d="M 10 0 L 90 0 Q 100 0 100 10 L 100 65 Q 100 75 90 75 L 10 75 Q 0 75 0 65 L 0 10 Q 0 0 10 0 Z"/><path fill="none" stroke="#333333" d="M 10 0 M 10 0 L 90 0 Q 100 0 100 10 L 100 65 Q 100 75 90 75 L 10 75 Q 0 75 0 65 L 0 10 Q 0 0 10 0 Z" stroke-miterlimit="10" stroke-width="2"/></g></g></g></g></g><g transform="matrix(1,0,0,1,310,254)"><g><g><rect fill="rgb(0,0,0)" stroke="none" x="0" y="0" width="81" height="28" fill-opacity="0"/></g></g><g><g><rect fill="rgb(0,0,0)" stroke="none" x="0" y="0" width="81" height="28" fill-opacity="0"/></g></g><g><g><rect fill="rgb(0,0,0)" stroke="none" x="13.484375" y="0" width="55" height="28" fill-opacity="0"/></g></g><g><g><rect fill="rgb(0,0,0)" stroke="none" x="13.484375" y="0" width="55" height="28" fill-opacity="0"/></g><text fill="rgb(0, 0, 0)" stroke="none" font-family="Arial" font-size="12px" font-style="normal" font-weight="normal" text-decoration="" line-height="14px" x="16.484375" y="12">Hexagon</text><text fill="rgb(0, 0, 0)" stroke="none" font-family="Arial" font-size="12px" font-style="normal" font-weight="normal" text-decoration="" line-height="14px" x="13.484375" y="26">Processor</text></g></g><g transform="matrix(1,0,0,1,105,176)"><g transform="translate(0,0)"><g transform="translate(-14,-179) translate(-91,3) matrix(1,0,0,1,0,0)"><g><path fill="none" stroke="#000000" d="M 109 230.00999900019994 L 109 213.33999933346664 L 109 196.6699996667333 L 109 180" stroke-miterlimit="10"/></g></g></g></g><g transform="matrix(1,0,0,1,346,176)"><g transform="translate(0,0)"><g transform="translate(-484,-215) translate(138,39) matrix(1,0,0,1,0,0)"><g><path fill="none" stroke="#000000" d="M 350 180 L 350 196.66666666666666 L 350 213.33333333333334 L 350 230" stroke-miterlimit="10"/></g></g></g></g><g transform="matrix(1,0,0,1,-281,41)"><g><g><rect fill="rgb(0,0,0)" stroke="none" x="0" y="0" width="331" height="14" fill-opacity="0"/></g></g><g><g><rect fill="rgb(0,0,0)" stroke="none" x="0" y="0" width="331" height="14" fill-opacity="0"/></g></g><g><g><rect fill="rgb(0,0,0)" stroke="none" x="297.265625" y="0" width="34" height="14" fill-opacity="0"/></g></g><g><g><rect fill="rgb(0,0,0)" stroke="none" x="297.265625" y="0" width="34" height="14" fill-opacity="0"/></g><text fill="rgb(0, 0, 0)" stroke="none" font-family="Arial" font-size="12px" font-style="normal" font-weight="normal" text-decoration="" line-height="14px" x="297" y="12">DDR</text><text fill="rgb(0, 0, 0)" stroke="none" font-family="Arial" font-size="12px" font-style="normal" font-weight="normal" text-decoration="" line-height="14px" x="323" y="12"> -</text></g></g></g></svg>